<?xml version="1.0" encoding="UTF-8"?>
<svg id="Calque_1" xmlns="http://www.w3.org/2000/svg" viewBox="0 0 60 50.64">
  <defs>
    <style>
      .cls-1 {
        fill: #2e95f8;
      }
    </style>
  </defs>
  <path class="cls-1" d="M34.28,10.81c0,4.63,1.39,8.8,4.25,12.45,2.93,3.73,6.73,6.12,11.35,7.19.75.18,1.52.26,2.28.42,3.86.85,6.9,3.91,7.65,7.8,1.13,5.85-2.85,10.94-8.08,11.81-3.13.52-5.93-.25-8.33-2.34-2.26-1.97-4.78-3.44-7.65-4.3-1.4-.42-2.84-.69-4.3-.79-5.05-.33-9.58,1.04-13.62,4.08-.52.39-1,.84-1.5,1.25-2.11,1.71-4.54,2.45-7.23,2.21-4.59-.41-8.21-3.84-8.95-8.29-.89-5.29,2.46-10.19,7.5-11.38,3.33-.79,6.37-.06,8.96,2.21,2.87,2.51,6.15,4.15,9.91,4.83,1.38.25,2.78.39,4.19.29,1.73-.12,3.31-.66,4.61-1.87.99-.92,1.6-2.06,1.81-3.39.37-2.41-.33-4.51-1.93-6.33-2.82-3.23-6.3-5.38-10.46-6.41-.81-.2-1.64-.29-2.45-.47-3.56-.8-6.01-2.91-7.36-6.29-.46-1.15-.65-2.35-.64-3.58.08-5.11,3.75-8.93,8.09-9.72,3.44-.63,6.45.29,8.96,2.72,1.7,1.65,2.65,3.69,2.9,6.05.07.62.04,1.23.04,1.85ZM24.28,15c2.75,0,4.99-2.23,5.01-4.96.01-2.6-2.03-5.01-4.98-5.02-2.74-.01-5.01,2.16-5,5,0,2.91,2.35,4.98,4.98,4.99ZM9.98,35.66c-2.45-.05-4.97,1.94-4.97,4.98,0,3.03,2.5,5.01,5.01,4.99,2.77-.03,4.99-2.25,4.97-5.03-.01-2.84-2.38-5-5.01-4.95ZM50.02,35.66c-2.74-.05-4.99,2.24-5.01,4.94-.02,2.74,2.24,5.02,4.97,5.03,2.71.01,4.99-2.22,5.01-4.95.02-2.78-2.28-5.05-4.97-5.02Z"/>
</svg>